<svg xmlns="http://www.w3.org/2000/svg" xmlns:svg="http://www.w3.org/2000/svg" id="svg4874" width="96" height="96" version="1.1" viewBox="0 0 96 96"><metadata id="metadata4879"/><g id="layer1" transform="translate(67.857146,-78.50504)"><g id="g4845" transform="matrix(0,-1,-1,0,373.50506,516.50504)" style="display:inline"><g id="g4778" transform="matrix(-0.9996045,0,0,1,575.94296,-611.00001)"><g id="g4780" transform="matrix(-1,0,0,1,575.99999,611)" style="display:inline"><rect style="color:#000;display:inline;overflow:visible;visibility:visible;fill:none;stroke:none;stroke-width:4;marker:none;enable-background:accumulate" id="rect4782" width="96.038" height="96" x="-438.002" y="345.362" transform="scale(-1,1)"/><path id="path4297" d="m 381.97988,355.36261 c -10.00396,0 -9.8873,3.91306 -10.00396,14 l 0,47.99961 c 0.11666,10.08694 0,14 10.00396,14 l 36.01466,0 c 10.00396,0 9.8873,-3.91306 10.00396,-14 l 0,-47.99961 c -0.11666,-10.08694 0,-14 -10.00396,-14 z" style="color:#000;display:inline;overflow:visible;visibility:visible;opacity:1;fill:none;fill-opacity:1;fill-rule:nonzero;stroke:gray;stroke-width:4.00079155;stroke-linecap:butt;stroke-linejoin:miter;stroke-miterlimit:4;stroke-dasharray:none;stroke-dashoffset:0;stroke-opacity:1;marker:none;enable-background:accumulate"/><rect style="color:#000;display:inline;overflow:visible;visibility:visible;opacity:1;fill:gray;fill-opacity:1;fill-rule:nonzero;stroke:none;stroke-width:8.0015831;stroke-linecap:butt;stroke-linejoin:miter;stroke-miterlimit:4;stroke-dasharray:none;stroke-dashoffset:0;stroke-opacity:1;marker:none;enable-background:accumulate" id="rect4188" width="16" height="6.002" x="-401.362" y="-371.976" transform="matrix(0,-1,-1,0,0,0)"/><path style="color:#000;display:inline;overflow:visible;visibility:visible;opacity:1;fill:gray;fill-opacity:1;fill-rule:nonzero;stroke:none;stroke-width:8.0015831;stroke-linecap:butt;stroke-linejoin:miter;stroke-miterlimit:4;stroke-dasharray:none;stroke-dashoffset:0;stroke-opacity:1;marker:none;enable-background:accumulate" id="path4190" d="m 349.96763,433.36222 4.00158,0 8.00317,-12 0,-56 -8.00316,-12 -4.00159,0 z"/></g></g></g></g></svg>