<svg xmlns="http://www.w3.org/2000/svg" xmlns:svg="http://www.w3.org/2000/svg" id="svg4874" width="96" height="96" version="1.1" viewBox="0 0 96 96"><metadata id="metadata4879"/><g id="layer1" transform="translate(67.857146,-78.50504)"><g id="g4845" transform="matrix(0,-1,-1,0,373.50506,516.50504)" style="display:inline"><g id="g4778" transform="matrix(-0.9996045,0,0,1,575.94296,-611.00001)"><g id="g4780" transform="matrix(-1,0,0,1,575.99999,611)" style="display:inline"><rect style="color:#000;display:inline;overflow:visible;visibility:visible;fill:none;stroke:none;stroke-width:4;marker:none;enable-background:accumulate" id="rect4782" width="96.038" height="96" x="-438.002" y="345.362" transform="scale(-1,1)"/><path style="color:#000;font-style:normal;font-variant:normal;font-weight:400;font-stretch:normal;font-size:medium;line-height:normal;font-family:sans-serif;font-variant-ligatures:normal;font-variant-position:normal;font-variant-caps:normal;font-variant-numeric:normal;font-variant-alternates:normal;font-feature-settings:normal;text-indent:0;text-align:start;text-decoration:none;text-decoration-line:none;text-decoration-style:solid;text-decoration-color:#000;letter-spacing:normal;word-spacing:normal;text-transform:none;writing-mode:lr-tb;direction:ltr;text-orientation:mixed;baseline-shift:baseline;text-anchor:start;white-space:normal;shape-padding:0;clip-rule:nonzero;display:inline;overflow:visible;visibility:visible;opacity:1;isolation:auto;mix-blend-mode:normal;color-interpolation:sRGB;color-interpolation-filters:linearRGB;solid-color:#000;solid-opacity:1;fill:gray;fill-opacity:1;fill-rule:nonzero;stroke:none;stroke-width:4.00000048;stroke-linecap:butt;stroke-linejoin:miter;stroke-miterlimit:4;stroke-dasharray:none;stroke-dashoffset:0;stroke-opacity:1;marker:none;color-rendering:auto;image-rendering:auto;shape-rendering:auto;text-rendering:auto;enable-background:accumulate" id="path4297" d="M 35.976562,2.0000001 C 30.943803,2.0581871 27.26124,1.881546 24.25,3.5429689 22.74438,4.3736802 21.553141,5.7767541 20.894531,7.5312501 20.235931,9.2857461 19.998047,11.369641 19.998047,14 v 68 c 0,2.630359 0.237884,4.714254 0.896484,6.46875 0.65861,1.754496 1.849849,3.15757 3.355469,3.988281 3.01124,1.661433 6.693803,1.484792 11.726562,1.542969 h 0.01172 24.021485 0.01172 c 5.03276,-0.05818 8.715323,0.118464 11.726563,-1.542969 1.50562,-0.830711 2.696869,-2.233785 3.355469,-3.988281 C 75.762116,86.714254 76,84.630359 76,82 V 14 C 76,11.369641 75.762116,9.2857461 75.103516,7.5312501 74.444916,5.7767541 73.253667,4.3736802 71.748047,3.5429689 68.736807,1.881546 65.054244,2.0581771 60.021484,2.0000001 H 60.009766 35.988281 Z M 24.080078,12 h 47.839844 c 0.04599,0.606222 0.07813,1.255513 0.07813,2 V 82 H 24 V 14 c 0,-0.744487 0.03408,-1.393778 0.08008,-2 z M 40,86 h 16 v 3.998047 H 40 Z" transform="matrix(0,-1,-1.0003957,0,438.00245,441.36222)"/></g></g></g></g></svg>