<svg xmlns="http://www.w3.org/2000/svg" xmlns:svg="http://www.w3.org/2000/svg" id="svg4874" width="96" height="96" version="1.1" viewBox="0 0 96 96"><metadata id="metadata4879"/><g id="layer1" transform="translate(67.857146,-78.50504)"><g id="g4845" transform="matrix(0,-1,-1,0,373.50506,516.50504)" style="display:inline"><g id="g4778" transform="matrix(-0.9996045,0,0,1,575.94296,-611.00001)"><g id="g4780" transform="matrix(-1,0,0,1,575.99999,611)" style="display:inline"><rect style="color:#000;display:inline;overflow:visible;visibility:visible;fill:none;stroke:none;stroke-width:4;marker:none;enable-background:accumulate" id="rect4782" width="96.038" height="96" x="-438.002" y="345.362" transform="scale(-1,1)"/><path style="color:#000;font-style:normal;font-variant:normal;font-weight:400;font-stretch:normal;font-size:medium;line-height:normal;font-family:sans-serif;font-variant-ligatures:normal;font-variant-position:normal;font-variant-caps:normal;font-variant-numeric:normal;font-variant-alternates:normal;font-feature-settings:normal;text-indent:0;text-align:start;text-decoration:none;text-decoration-line:none;text-decoration-style:solid;text-decoration-color:#000;letter-spacing:normal;word-spacing:normal;text-transform:none;writing-mode:lr-tb;direction:ltr;text-orientation:mixed;baseline-shift:baseline;text-anchor:start;white-space:normal;shape-padding:0;clip-rule:nonzero;display:inline;overflow:visible;visibility:visible;opacity:1;isolation:auto;mix-blend-mode:normal;color-interpolation:sRGB;color-interpolation-filters:linearRGB;solid-color:#000;solid-opacity:1;fill:gray;fill-opacity:1;fill-rule:nonzero;stroke:none;stroke-width:4.00000048;stroke-linecap:butt;stroke-linejoin:miter;stroke-miterlimit:4;stroke-dasharray:none;stroke-dashoffset:0;stroke-opacity:1;marker:none;color-rendering:auto;image-rendering:auto;shape-rendering:auto;text-rendering:auto;enable-background:accumulate" id="path4297" d="M 15.976562 12 C 10.943805 12.058187 7.26124 11.883489 4.25 13.544922 C 2.74438 14.375633 1.5531413 15.778707 0.89453125 17.533203 C 0.23593125 19.287699 -0.001953125 21.369641 -0.001953125 24 L -0.001953125 72.001953 C -0.001953125 74.632312 0.23593125 76.712301 0.89453125 78.466797 C 1.5531413 80.221293 2.74438 81.628273 4.25 82.458984 C 7.26124 84.120407 10.943804 83.941823 15.976562 84 L 15.988281 84 L 80.009766 84 L 80.021484 84 C 85.054244 83.941813 88.736807 84.120407 91.748047 82.458984 C 93.253667 81.628273 94.444916 80.221293 95.103516 78.466797 C 95.762116 76.712301 96 74.632312 96 72.001953 L 96 24 C 96 21.369641 95.762116 19.287699 95.103516 17.533203 C 94.444916 15.778707 93.253667 14.375633 91.748047 13.544922 C 88.736807 11.883489 85.054244 12.058177 80.021484 12 L 80.009766 12 L 15.988281 12 L 15.976562 12 z M 16.021484 16 L 79.998047 16 C 81.504077 16.017566 82.805473 16.054929 84 16.107422 L 84 79.892578 C 82.805473 79.945071 81.504077 79.982431 79.998047 80 L 79.974609 80 L 16.021484 80 L 16 80 C 13.592044 79.971935 11.606134 79.911712 10 79.773438 L 10 16.226562 C 11.610306 16.088061 13.603637 16.027927 16.021484 16 z M 87.998047 40 L 92 40 L 92 56 L 87.998047 56 L 87.998047 40 z" transform="matrix(0,-1,-1.0003957,0,438.00245,441.36222)"/></g></g></g></g></svg>